# xmcd
# 
# Track frame offsets:
#     187
#     18020
#     32700
#     50125
#     65050
#     82870
#     101637
#     118450
#     136765
#     153950
#     169675
#     186395
# 
# Disc length: 2703
# 
# Revision: 2
# Processed by: cddbd v1.5.2PL0 Copyright (c) Steve Scherf et al.
# Submitted via: fre:ac v1.0.17
# 
DISCID=9e0a8d0c
DTITLE=神山純一 - Etoile -ASTRAL SONATINE-
DYEAR=1992
DGENRE=New Age
TTITLE0=牡羊座
TTITLE1=牡牛座
TTITLE2=双子座
TTITLE3=蟹座
TTITLE4=獅子座
TTITLE5=乙女座
TTITLE6=天秤座
TTITLE7=獅子座
TTITLE8=射手座
TTITLE9=山羊座
TTITLE10=水瓶座
TTITLE11=魚座
EXTD=
EXTT0=
EXTT1=
EXTT2=
EXTT3=
EXTT4=
EXTT5=
EXTT6=
EXTT7=
EXTT8=
EXTT9=
EXTT10=
EXTT11=
PLAYORDER=
